<svg version="1.2" xmlns="http://www.w3.org/2000/svg" viewBox="0 0 112 31" width="112" height="31">
	<title>button-gold-svg</title>
	<style>
		.s0 { opacity: .3;fill: #000000 } 
		.s1 { fill: #0170fe } 
		.s2 { fill: #0353bf } 
		.s3 { fill: #1089ec } 
		.s4 { fill: #81b7fc } 
		.s5 { fill: none;stroke: #000000 } 
	</style>
	<g id="Page-1">
		<g id="Brawl-CTA-Red">
			<path id="Path" class="s0" d="m111.3 30.6h-107.3c-0.8 0-1.5-0.7-1.5-1.5v-23.3c0-0.8 0.7-1.5 1.5-1.5h107.4c0.8 0 1.5 0.7 1.5 1.5v23.4c-0.1 0.8-0.8 1.4-1.6 1.4z"/>
			<path id="Path" class="s1" d="m109.9 27.1h-107.4c-0.8 0-1.5-0.7-1.5-1.5v-23.3c0-0.8 0.7-1.5 1.5-1.5h107.4c0.8 0 1.5 0.7 1.5 1.5v23.4c-0.1 0.7-0.7 1.4-1.5 1.4z"/>
			<path id="Path" class="s2" d="m109.8 27.1h-107.3c-0.8 0-1.5-0.7-1.5-1.5v-1.3h110.3v1.3c0 0.8-0.6 1.5-1.5 1.5z"/>
			<path id="Path" class="s3" d="m111.3 3.6h-110.3v-1.4c0-0.8 0.6-1.4 1.4-1.4h107.4c0.8 0 1.4 0.6 1.4 1.4z"/>
			<path id="Path" class="s4" d="m105.4 0.9h4.7c0.8 0 1.4 0.8 1.3 1.6l-0.3 3.8z"/>
			<path id="Path" fill-rule="evenodd" class="s5" d="m109.9 27.1h-107.4c-0.8 0-1.5-0.7-1.5-1.5v-23.3c0-0.8 0.7-1.5 1.5-1.5h107.4c0.8 0 1.5 0.7 1.5 1.5v23.4c-0.1 0.7-0.7 1.4-1.5 1.4z"/>
		</g>
	</g>
</svg>